<mxfile host="app.diagrams.net" agent="Mozilla/5.0 (X11; Ubuntu; Linux x86_64; rv:143.0) Gecko/20100101 Firefox/143.0" version="28.2.5">
  <diagram name="Seite-1" id="tv3RCUC1lsHie5otSo7a">
    <mxGraphModel dx="1678" dy="972" grid="1" gridSize="10" guides="1" tooltips="1" connect="1" arrows="1" fold="1" page="1" pageScale="1" pageWidth="827" pageHeight="1169" math="0" shadow="0">
      <root>
        <mxCell id="0" />
        <mxCell id="1" parent="0" />
        <mxCell id="zjGeTOThquZhaolVEsW3-88" value="" style="html=1;dropTarget=0;whiteSpace=wrap;" vertex="1" parent="1">
          <mxGeometry x="110" y="240" width="560" height="560" as="geometry" />
        </mxCell>
        <mxCell id="zjGeTOThquZhaolVEsW3-89" value="" style="shape=module;jettyWidth=8;jettyHeight=4;" vertex="1" parent="zjGeTOThquZhaolVEsW3-88">
          <mxGeometry x="1" width="20" height="20" relative="1" as="geometry">
            <mxPoint x="-27" y="7" as="offset" />
          </mxGeometry>
        </mxCell>
        <mxCell id="zjGeTOThquZhaolVEsW3-90" value="&lt;div&gt;&lt;div&gt;«component»&lt;/div&gt;&lt;/div&gt;&lt;div&gt;&lt;b&gt;Common Model&lt;/b&gt;&lt;/div&gt;" style="text;html=1;align=center;verticalAlign=middle;whiteSpace=wrap;rounded=0;" vertex="1" parent="1">
          <mxGeometry x="120" y="260" width="100" height="50" as="geometry" />
        </mxCell>
        <mxCell id="zjGeTOThquZhaolVEsW3-91" value="«component»&lt;br&gt;&lt;b&gt;Authentication&lt;/b&gt;" style="html=1;dropTarget=0;whiteSpace=wrap;" vertex="1" parent="1">
          <mxGeometry x="150" y="400" width="140" height="70" as="geometry" />
        </mxCell>
        <mxCell id="zjGeTOThquZhaolVEsW3-92" value="" style="shape=module;jettyWidth=8;jettyHeight=4;" vertex="1" parent="zjGeTOThquZhaolVEsW3-91">
          <mxGeometry x="1" width="20" height="20" relative="1" as="geometry">
            <mxPoint x="-27" y="7" as="offset" />
          </mxGeometry>
        </mxCell>
        <mxCell id="zjGeTOThquZhaolVEsW3-93" value="&lt;div&gt;«component»&lt;/div&gt;&lt;div&gt;&lt;b&gt;Network Client&lt;/b&gt;&lt;/div&gt;" style="html=1;dropTarget=0;whiteSpace=wrap;" vertex="1" parent="1">
          <mxGeometry x="335" y="270" width="121" height="60" as="geometry" />
        </mxCell>
        <mxCell id="zjGeTOThquZhaolVEsW3-94" value="" style="shape=module;jettyWidth=8;jettyHeight=4;" vertex="1" parent="zjGeTOThquZhaolVEsW3-93">
          <mxGeometry x="1" width="20" height="20" relative="1" as="geometry">
            <mxPoint x="-27" y="7" as="offset" />
          </mxGeometry>
        </mxCell>
        <mxCell id="zjGeTOThquZhaolVEsW3-95" value="«component»&lt;br&gt;&lt;b&gt;Services&lt;/b&gt;" style="html=1;dropTarget=0;whiteSpace=wrap;" vertex="1" parent="1">
          <mxGeometry x="490" y="520" width="140" height="70" as="geometry" />
        </mxCell>
        <mxCell id="zjGeTOThquZhaolVEsW3-96" value="" style="shape=module;jettyWidth=8;jettyHeight=4;" vertex="1" parent="zjGeTOThquZhaolVEsW3-95">
          <mxGeometry x="1" width="20" height="20" relative="1" as="geometry">
            <mxPoint x="-27" y="7" as="offset" />
          </mxGeometry>
        </mxCell>
        <mxCell id="zjGeTOThquZhaolVEsW3-97" value="" style="html=1;verticalAlign=bottom;labelBackgroundColor=none;endArrow=oval;endFill=0;endSize=8;rounded=0;" edge="1" parent="1" source="zjGeTOThquZhaolVEsW3-93">
          <mxGeometry width="160" relative="1" as="geometry">
            <mxPoint x="253.83414715719073" y="361" as="sourcePoint" />
            <mxPoint x="396" y="370" as="targetPoint" />
          </mxGeometry>
        </mxCell>
        <mxCell id="zjGeTOThquZhaolVEsW3-98" value="" style="rounded=0;orthogonalLoop=1;jettySize=auto;html=1;endArrow=halfCircle;endFill=0;endSize=6;strokeWidth=1;sketch=0;fontSize=12;edgeStyle=orthogonalEdgeStyle;" edge="1" parent="1" source="zjGeTOThquZhaolVEsW3-91">
          <mxGeometry relative="1" as="geometry">
            <mxPoint x="250" y="490" as="sourcePoint" />
            <mxPoint x="390" y="370" as="targetPoint" />
            <Array as="points">
              <mxPoint x="220" y="370" />
            </Array>
          </mxGeometry>
        </mxCell>
        <mxCell id="zjGeTOThquZhaolVEsW3-99" value="Authentication-Service" style="text;html=1;align=center;verticalAlign=middle;whiteSpace=wrap;rounded=0;fontSize=8;" vertex="1" parent="1">
          <mxGeometry x="150" y="600" width="60" height="30" as="geometry" />
        </mxCell>
        <mxCell id="zjGeTOThquZhaolVEsW3-100" value="" style="rounded=0;orthogonalLoop=1;jettySize=auto;html=1;endArrow=halfCircle;endFill=0;endSize=6;strokeWidth=1;sketch=0;fontSize=12;edgeStyle=orthogonalEdgeStyle;" edge="1" parent="1" source="zjGeTOThquZhaolVEsW3-95">
          <mxGeometry relative="1" as="geometry">
            <mxPoint x="240" y="459" as="sourcePoint" />
            <mxPoint x="406" y="370" as="targetPoint" />
            <Array as="points">
              <mxPoint x="560" y="370" />
            </Array>
          </mxGeometry>
        </mxCell>
        <mxCell id="zjGeTOThquZhaolVEsW3-101" value="" style="html=1;verticalAlign=bottom;labelBackgroundColor=none;endArrow=oval;endFill=0;endSize=8;rounded=0;" edge="1" parent="1" source="zjGeTOThquZhaolVEsW3-91">
          <mxGeometry width="160" relative="1" as="geometry">
            <mxPoint x="220" y="520" as="sourcePoint" />
            <mxPoint x="220" y="610" as="targetPoint" />
          </mxGeometry>
        </mxCell>
        <mxCell id="zjGeTOThquZhaolVEsW3-102" value="" style="html=1;verticalAlign=bottom;labelBackgroundColor=none;endArrow=oval;endFill=0;endSize=8;rounded=0;" edge="1" parent="1" source="zjGeTOThquZhaolVEsW3-95">
          <mxGeometry width="160" relative="1" as="geometry">
            <mxPoint x="110" y="574.86" as="sourcePoint" />
            <mxPoint x="560" y="610" as="targetPoint" />
          </mxGeometry>
        </mxCell>
        <mxCell id="zjGeTOThquZhaolVEsW3-103" value="Data-Services" style="text;html=1;align=center;verticalAlign=middle;whiteSpace=wrap;rounded=0;fontSize=8;" vertex="1" parent="1">
          <mxGeometry x="570" y="590" width="60" height="30" as="geometry" />
        </mxCell>
        <mxCell id="zjGeTOThquZhaolVEsW3-104" value="«component»&lt;br&gt;&lt;b&gt;Domain&lt;/b&gt;" style="html=1;dropTarget=0;whiteSpace=wrap;" vertex="1" parent="1">
          <mxGeometry x="340" y="420" width="140" height="70" as="geometry" />
        </mxCell>
        <mxCell id="zjGeTOThquZhaolVEsW3-105" value="" style="shape=module;jettyWidth=8;jettyHeight=4;" vertex="1" parent="zjGeTOThquZhaolVEsW3-104">
          <mxGeometry x="1" width="20" height="20" relative="1" as="geometry">
            <mxPoint x="-27" y="7" as="offset" />
          </mxGeometry>
        </mxCell>
        <mxCell id="zjGeTOThquZhaolVEsW3-106" value="" style="html=1;verticalAlign=bottom;labelBackgroundColor=none;endArrow=oval;endFill=0;endSize=8;rounded=0;" edge="1" parent="1" source="zjGeTOThquZhaolVEsW3-104">
          <mxGeometry width="160" relative="1" as="geometry">
            <mxPoint x="230" y="550" as="sourcePoint" />
            <mxPoint x="410" y="520" as="targetPoint" />
          </mxGeometry>
        </mxCell>
        <mxCell id="zjGeTOThquZhaolVEsW3-107" value="Network-Interface" style="text;html=1;align=center;verticalAlign=middle;whiteSpace=wrap;rounded=0;fontSize=8;" vertex="1" parent="1">
          <mxGeometry x="410" y="330" width="60" height="30" as="geometry" />
        </mxCell>
        <mxCell id="zjGeTOThquZhaolVEsW3-108" value="&lt;div&gt;«component»&lt;b&gt;&lt;br&gt;&lt;/b&gt;&lt;/div&gt;&lt;div&gt;&lt;b&gt;Facade&lt;/b&gt;&lt;/div&gt;" style="html=1;dropTarget=0;whiteSpace=wrap;" vertex="1" parent="1">
          <mxGeometry x="330" y="650" width="140" height="50" as="geometry" />
        </mxCell>
        <mxCell id="zjGeTOThquZhaolVEsW3-109" value="" style="shape=module;jettyWidth=8;jettyHeight=4;" vertex="1" parent="zjGeTOThquZhaolVEsW3-108">
          <mxGeometry x="1" width="20" height="20" relative="1" as="geometry">
            <mxPoint x="-27" y="7" as="offset" />
          </mxGeometry>
        </mxCell>
        <mxCell id="zjGeTOThquZhaolVEsW3-110" value="" style="rounded=0;orthogonalLoop=1;jettySize=auto;html=1;endArrow=halfCircle;endFill=0;endSize=6;strokeWidth=1;sketch=0;fontSize=12;edgeStyle=orthogonalEdgeStyle;" edge="1" parent="1" source="zjGeTOThquZhaolVEsW3-108">
          <mxGeometry relative="1" as="geometry">
            <mxPoint x="570" y="530" as="sourcePoint" />
            <mxPoint x="560" y="610" as="targetPoint" />
            <Array as="points">
              <mxPoint x="560" y="680" />
            </Array>
          </mxGeometry>
        </mxCell>
        <mxCell id="zjGeTOThquZhaolVEsW3-111" value="" style="rounded=0;orthogonalLoop=1;jettySize=auto;html=1;endArrow=halfCircle;endFill=0;endSize=6;strokeWidth=1;sketch=0;fontSize=12;edgeStyle=orthogonalEdgeStyle;" edge="1" parent="1" source="zjGeTOThquZhaolVEsW3-108">
          <mxGeometry relative="1" as="geometry">
            <mxPoint x="480" y="695" as="sourcePoint" />
            <mxPoint x="220" y="620" as="targetPoint" />
            <Array as="points">
              <mxPoint x="220" y="680" />
            </Array>
          </mxGeometry>
        </mxCell>
        <mxCell id="zjGeTOThquZhaolVEsW3-112" value="" style="html=1;verticalAlign=bottom;labelBackgroundColor=none;endArrow=oval;endFill=0;endSize=8;rounded=0;" edge="1" parent="1" source="zjGeTOThquZhaolVEsW3-108">
          <mxGeometry width="160" relative="1" as="geometry">
            <mxPoint x="230" y="600" as="sourcePoint" />
            <mxPoint x="400" y="730" as="targetPoint" />
          </mxGeometry>
        </mxCell>
        <mxCell id="zjGeTOThquZhaolVEsW3-113" value="Common-Facade" style="text;html=1;align=center;verticalAlign=middle;whiteSpace=wrap;rounded=0;fontSize=8;" vertex="1" parent="1">
          <mxGeometry x="399" y="700" width="50" height="30" as="geometry" />
        </mxCell>
        <mxCell id="zjGeTOThquZhaolVEsW3-114" value="&lt;div&gt;&lt;div&gt;«delegate»&lt;/div&gt;&lt;/div&gt;" style="edgeStyle=orthogonalEdgeStyle;rounded=0;orthogonalLoop=1;jettySize=auto;html=1;dashed=1;dashPattern=8 8;spacingBottom=0;" edge="1" parent="1" source="zjGeTOThquZhaolVEsW3-115">
          <mxGeometry relative="1" as="geometry">
            <mxPoint x="400" y="730" as="targetPoint" />
          </mxGeometry>
        </mxCell>
        <mxCell id="zjGeTOThquZhaolVEsW3-115" value="" style="html=1;rounded=0;" vertex="1" parent="1">
          <mxGeometry x="390" y="790" width="20" height="21" as="geometry" />
        </mxCell>
        <mxCell id="zjGeTOThquZhaolVEsW3-116" value="" style="rounded=0;orthogonalLoop=1;jettySize=auto;html=1;endArrow=halfCircle;endFill=0;endSize=6;strokeWidth=1;sketch=0;fontSize=12;edgeStyle=orthogonalEdgeStyle;" edge="1" parent="1" source="zjGeTOThquZhaolVEsW3-95">
          <mxGeometry relative="1" as="geometry">
            <mxPoint x="370.02857142857147" y="660" as="sourcePoint" />
            <mxPoint x="230" y="610" as="targetPoint" />
            <Array as="points">
              <mxPoint x="390" y="570" />
              <mxPoint x="390" y="610" />
            </Array>
          </mxGeometry>
        </mxCell>
        <mxCell id="zjGeTOThquZhaolVEsW3-117" value="" style="rounded=0;orthogonalLoop=1;jettySize=auto;html=1;endArrow=halfCircle;endFill=0;endSize=6;strokeWidth=1;sketch=0;fontSize=12;edgeStyle=orthogonalEdgeStyle;" edge="1" parent="1" source="zjGeTOThquZhaolVEsW3-95">
          <mxGeometry relative="1" as="geometry">
            <mxPoint x="500" y="565" as="sourcePoint" />
            <mxPoint x="420" y="520" as="targetPoint" />
            <Array as="points">
              <mxPoint x="455" y="540" />
              <mxPoint x="455" y="520" />
            </Array>
          </mxGeometry>
        </mxCell>
        <mxCell id="zjGeTOThquZhaolVEsW3-118" value="" style="rounded=0;orthogonalLoop=1;jettySize=auto;html=1;endArrow=halfCircle;endFill=0;endSize=6;strokeWidth=1;sketch=0;fontSize=12;edgeStyle=orthogonalEdgeStyle;" edge="1" parent="1" source="zjGeTOThquZhaolVEsW3-91">
          <mxGeometry relative="1" as="geometry">
            <mxPoint x="500" y="565" as="sourcePoint" />
            <mxPoint x="400" y="520" as="targetPoint" />
            <Array as="points">
              <mxPoint x="250" y="520" />
            </Array>
          </mxGeometry>
        </mxCell>
        <mxCell id="zjGeTOThquZhaolVEsW3-119" value="" style="rounded=0;orthogonalLoop=1;jettySize=auto;html=1;endArrow=halfCircle;endFill=0;endSize=6;strokeWidth=1;sketch=0;fontSize=12;edgeStyle=orthogonalEdgeStyle;" edge="1" parent="1" source="zjGeTOThquZhaolVEsW3-108">
          <mxGeometry relative="1" as="geometry">
            <mxPoint x="480" y="690" as="sourcePoint" />
            <mxPoint x="410" y="530" as="targetPoint" />
            <Array as="points">
              <mxPoint x="410" y="600" />
              <mxPoint x="410" y="600" />
            </Array>
          </mxGeometry>
        </mxCell>
        <mxCell id="zjGeTOThquZhaolVEsW3-120" value="Domain-Models" style="text;html=1;align=center;verticalAlign=middle;whiteSpace=wrap;rounded=0;fontSize=8;" vertex="1" parent="1">
          <mxGeometry x="340" y="490" width="70" height="30" as="geometry" />
        </mxCell>
      </root>
    </mxGraphModel>
  </diagram>
</mxfile>
